<?xml version="1.0" encoding="UTF-8"?>
<svg version="1.1" xmlns="http://www.w3.org/2000/svg" width="760" height="693">
<path d="M0 0 C250.8 0 501.6 0 760 0 C760 228.69 760 457.38 760 693 C509.2 693 258.4 693 0 693 C0 464.31 0 235.62 0 0 Z " fill="#FEFEFE" transform="translate(0,0)"/>
<path d="M0 0 C5.67422229 -0.04973696 11.34831538 -0.0858782 17.02270508 -0.10986328 C18.94981092 -0.11987087 20.87690178 -0.1334811 22.80395508 -0.15087891 C25.58678913 -0.17535921 28.36942101 -0.18653578 31.15234375 -0.1953125 C32.00271713 -0.20563507 32.85309052 -0.21595764 33.72923279 -0.22659302 C42.17994185 -0.2281495 49.63582742 0.73244018 56.26953125 6.25390625 C61.08134119 11.10916368 62.2495081 15.72889078 62.5 22.5 C62.27507675 28.97778946 61.11028927 33.83286471 56.50390625 38.5234375 C54.14075746 40.56246364 51.59493632 42.27004246 49 44 C50.155 44.309375 51.31 44.61875 52.5 44.9375 C58.10596033 47.00600943 61.55557903 51.25855268 65 56 C67.16798741 62.50396222 67.30781164 71.18286114 64.4375 77.5 C60.5864438 83.78826309 55.47710933 87.21940328 48.54714966 89.40664673 C44.06108177 90.45166701 39.64319565 90.36693373 35.05859375 90.29296875 C34.05031021 90.28872391 33.04202667 90.28447906 32.00318909 90.28010559 C28.81434284 90.26344683 25.626152 90.22581877 22.4375 90.1875 C20.26237898 90.17243661 18.08724796 90.15875112 15.91210938 90.14648438 C10.60785307 90.11358548 5.30397338 90.06351575 0 90 C0 88.68 0 87.36 0 86 C4.455 85.505 4.455 85.505 9 85 C9 58.6 9 32.2 9 5 C6.03 4.67 3.06 4.34 0 4 C0 2.68 0 1.36 0 0 Z " fill="#2F2E2E" transform="translate(32,247)"/>
<path d="M0 0 C5.94072787 -0.0746515 11.8811773 -0.12883772 17.82226562 -0.16479492 C19.83956667 -0.17979884 21.85683556 -0.20020855 23.87402344 -0.22631836 C26.78849263 -0.26307353 29.70252726 -0.27981068 32.6171875 -0.29296875 C33.95062698 -0.31619453 33.95062698 -0.31619453 35.31100464 -0.33988953 C44.60132286 -0.34233695 52.61599282 1.54537784 59.37109375 8.13671875 C64.54311991 14.05292133 64.53811081 19.92602567 64.34375 27.5546875 C63.67646016 34.24275159 61.53874683 38.90672504 56.5625 43.4375 C53.89743349 45.60789059 51.21923355 46.81280409 48 48 C52.4346805 57.09808378 57.05916149 66.06837515 61.9375 74.9375 C62.4219458 75.81954102 62.9063916 76.70158203 63.40551758 77.61035156 C65.37631235 81.53836157 65.37631235 81.53836157 68 85 C69.34747084 85.23075082 70.70377565 85.41153063 72.0625 85.5625 C73.361875 85.706875 74.66125 85.85125 76 86 C76 87.32 76 88.64 76 90 C69.07 90 62.14 90 55 90 C52.31056134 84.64406575 49.62234652 79.2875536 46.93725586 73.92944336 C46.02326352 72.10649044 45.10855381 70.28389701 44.19311523 68.46166992 C42.87816056 65.84387668 41.56578285 63.22480561 40.25390625 60.60546875 C39.84346573 59.78974899 39.43302521 58.97402924 39.01014709 58.1335907 C38.62982834 57.37302872 38.24950958 56.61246674 37.85766602 55.82885742 C37.52235367 55.16045334 37.18704132 54.49204926 36.84156799 53.8033905 C36 52 36 52 35 49 C30.71 49 26.42 49 22 49 C22.495 66.82 22.495 66.82 23 85 C25.97 85.33 28.94 85.66 32 86 C32 87.32 32 88.64 32 90 C21.44 90 10.88 90 0 90 C0 88.68 0 87.36 0 86 C4.455 85.505 4.455 85.505 9 85 C9 58.6 9 32.2 9 5 C6.03 4.67 3.06 4.34 0 4 C0 2.68 0 1.36 0 0 Z " fill="#302F2F" transform="translate(658,247)"/>
<path d="M0 0 C3.3 0 6.6 0 10 0 C12.48732731 7.70366403 14.97413732 15.4074948 17.46034336 23.11152077 C18.61565717 26.69144914 19.77112836 30.27132654 20.92700195 33.85107422 C22.0448709 37.31315405 23.16230314 40.77537456 24.27943039 44.23769379 C24.72043996 45.60431951 25.16158408 46.97090182 25.60286331 48.33744049 C27.8138149 55.18487858 30.01667343 62.0345258 32.17919922 68.89746094 C32.50540756 69.93156097 32.83161591 70.96566101 33.16770935 72.03109741 C33.76612671 73.93241156 34.36187802 75.83456765 34.95448303 77.73770142 C35.9171208 81.67502883 35.9171208 81.67502883 38 85 C39.51469448 85.23192865 41.03754562 85.41215238 42.5625 85.5625 C43.38878906 85.64628906 44.21507812 85.73007812 45.06640625 85.81640625 C45.70449219 85.87699219 46.34257812 85.93757813 47 86 C47 87.32 47 88.64 47 90 C36.44 90 25.88 90 15 90 C15 88.68 15 87.36 15 86 C17.97 86 20.94 86 24 86 C23.73445313 84.9378125 23.46890625 83.875625 23.1953125 82.78125 C21.46354167 75.85416667 19.73177083 68.92708333 18 62 C7.11 62 -3.78 62 -15 62 C-15.66 64.97 -16.32 67.94 -17 71 C-17.7721165 73.88304052 -18.58875847 76.74905171 -19.4140625 79.6171875 C-20.11939406 82.07656973 -20.11939406 82.07656973 -20 85 C-17.36 85.33 -14.72 85.66 -12 86 C-12 87.32 -12 88.64 -12 90 C-20.25 90 -28.5 90 -37 90 C-37 88.68 -37 87.36 -37 86 C-32.545 85.505 -32.545 85.505 -28 85 C-24.04277839 75.62310531 -20.9863525 65.99322125 -17.875 56.3125 C-17.30204755 54.53799236 -16.72880212 52.76357929 -16.15527344 50.98925781 C-14.99520704 47.39854704 -13.83712446 43.80720575 -12.68066406 40.21533203 C-11.11333768 35.34866107 -9.53817582 30.48455965 -7.9609375 25.62109375 C-7.27389685 23.50034325 -6.58708972 21.37951736 -5.90045166 19.25863647 C-5.46955338 17.92799493 -5.03836409 16.59744758 -4.60687256 15.26699829 C-4.01262636 13.43363786 -3.4203261 11.59964704 -2.828125 9.765625 C-2.4971582 8.74243164 -2.16619141 7.71923828 -1.82519531 6.66503906 C-1.14386671 4.46462987 -0.55867539 2.23470157 0 0 Z " fill="#323131" transform="translate(358,247)"/>
<path d="M0 0 C4.41074704 -0.09961729 8.82088095 -0.17181669 13.23242188 -0.21972656 C14.7299339 -0.23971919 16.22736908 -0.26692299 17.72460938 -0.30175781 C27.48943001 -0.52309375 34.53716061 -0.37027151 42.5 6 C44.92988192 10.85976385 44.72058868 15.68205553 44 21 C41.99932818 25.0727962 39.80644722 27.55299822 36 30 C36.886875 30.37125 37.77375 30.7425 38.6875 31.125 C42.41156631 33.23296206 45.20470802 35.08091581 47 39 C47.87272102 44.53229235 47.69619638 49.30491317 45.5625 54.5 C39.12495244 60.78053421 32.10760412 61.41558355 23.42140198 61.38183594 C21.09300729 61.35116683 18.76552668 61.30111773 16.4375 61.25 C14.84051722 61.22990197 13.24350998 61.21165705 11.64648438 61.1953125 C7.76371119 61.15158265 3.88212978 61.0827407 0 61 C0 60.01 0 59.02 0 58 C2.97 57.505 2.97 57.505 6 57 C6 39.51 6 22.02 6 4 C3.03 3.505 3.03 3.505 0 3 C0 2.01 0 1.02 0 0 Z " fill="#313030" transform="translate(253,398)"/>
<path d="M0 0 C6.36786075 -0.10208207 12.73550763 -0.17174934 19.10400391 -0.21972656 C21.26684454 -0.2397439 23.42963173 -0.2669663 25.59228516 -0.30175781 C28.71530406 -0.35071247 31.8376026 -0.37306817 34.9609375 -0.390625 C36.39280899 -0.42159271 36.39280899 -0.42159271 37.85360718 -0.45318604 C47.34762056 -0.45630315 55.28465783 2.38156103 62.24609375 8.94921875 C70.55198266 18.66100422 71.33535641 30.2035267 71.26074219 42.40869141 C71.25002356 44.49541279 71.26068084 46.58127354 71.2734375 48.66796875 C71.28718927 61.11805625 69.48121998 72.90636237 60.77734375 82.4296875 C55.1376776 87.4124255 48.81970872 90.13412008 41.32324219 90.11352539 C40.40258972 90.11344986 39.48193726 90.11337433 38.53338623 90.11329651 C37.54783752 90.10813522 36.56228882 90.10297394 35.546875 90.09765625 C34.53151672 90.0962413 33.51615845 90.09482635 32.47003174 90.09336853 C29.22999108 90.08777516 25.99001975 90.07522385 22.75 90.0625 C20.55208433 90.05748414 18.35416758 90.05292139 16.15625 90.04882812 C10.77080971 90.0378079 5.38540981 90.02107633 0 90 C0 88.68 0 87.36 0 86 C0.63808594 85.93941406 1.27617187 85.87882812 1.93359375 85.81640625 C2.75988281 85.73261719 3.58617187 85.64882813 4.4375 85.5625 C5.26121094 85.48128906 6.08492188 85.40007812 6.93359375 85.31640625 C8.98662025 85.21069185 8.98662025 85.21069185 10 84 C10.12495027 81.536507 10.18602203 79.09963233 10.20532227 76.63452148 C10.22017166 75.47850433 10.22017166 75.47850433 10.23532104 74.2991333 C10.26702701 71.73981853 10.2917292 69.18048517 10.31640625 66.62109375 C10.33696794 64.85131841 10.35796419 63.08154806 10.37937927 61.31178284 C10.43468109 56.6445418 10.48405446 51.97725586 10.53222656 47.30993652 C10.58238253 42.55098454 10.63809934 37.79209809 10.69335938 33.03320312 C10.80104008 23.68885802 10.90246288 14.3444561 11 5 C7.37 4.67 3.74 4.34 0 4 C0 2.68 0 1.36 0 0 Z M22 4 C22 31.06 22 58.12 22 86 C38.82802281 87.20485625 38.82802281 87.20485625 52.8125 80.75 C58.83191459 73.18273595 59.1582889 64.8527525 59.23828125 55.61328125 C59.246353 54.71562546 59.25442474 53.81796967 59.26274109 52.89311218 C59.27652723 50.99785257 59.28727366 49.10256871 59.29516602 47.20727539 C59.30666885 45.28630192 59.32709371 43.36535999 59.35668945 41.44458008 C59.8802329 24.2063162 59.8802329 24.2063162 52.625 9 C42.17619921 1.03900892 37.75833754 4 22 4 Z " fill="#2D2C2C" transform="translate(498,247)"/>
<path d="M0 0 C3.70697705 -0.26260373 7.41156358 -0.42156838 11.125 -0.5625 C12.17171875 -0.63791016 13.2184375 -0.71332031 14.296875 -0.79101562 C21.8711249 -1.00673793 21.8711249 -1.00673793 24.8503418 1.65014648 C26.45826013 4.02215057 27.72889599 6.43226687 29 9 C30.05422773 10.79082707 31.11841057 12.57582329 32.19140625 14.35546875 C33.31770364 16.29797427 34.44129604 18.24205013 35.5625 20.1875 C36.79507274 22.31279016 38.02815759 24.43778339 39.26171875 26.5625 C39.88224121 27.63242187 40.50276367 28.70234375 41.14208984 29.8046875 C44.03338629 34.77726147 46.95065781 39.73430588 49.875 44.6875 C50.37330322 45.53401123 50.87160645 46.38052246 51.38500977 47.25268555 C55.50428467 54.22580171 59.75309853 61.09878511 64 68 C64 47.21 64 26.42 64 5 C61.03 4.67 58.06 4.34 55 4 C55 2.68 55 1.36 55 0 C63.25 0 71.5 0 80 0 C80 1.32 80 2.64 80 4 C75.545 4.495 75.545 4.495 71 5 C70.67 33.05 70.34 61.1 70 90 C67.69 90 65.38 90 63 90 C60.99047852 87.94995117 60.99047852 87.94995117 59.37890625 85.04296875 C58.76200928 83.9638623 58.1451123 82.88475586 57.50952148 81.77294922 C56.86031105 80.57790989 56.21130966 79.38275697 55.5625 78.1875 C54.86875692 76.95691898 54.17217414 75.72793495 53.47290039 74.50048828 C52.02059134 71.94602307 50.58080049 69.3850913 49.14941406 66.81884766 C45.85663841 60.93862575 42.38981448 55.16264054 38.9375 49.375 C37.75900702 47.38287613 36.58062469 45.39068679 35.40234375 43.3984375 C28.96541417 32.58074041 22.47644986 21.7940831 16 11 C16 35.42 16 59.84 16 85 C18.97 85.33 21.94 85.66 25 86 C25 87.32 25 88.64 25 90 C16.75 90 8.5 90 0 90 C0 88.68 0 87.36 0 86 C4.455 85.505 4.455 85.505 9 85 C9 58.6 9 32.2 9 5 C6.03 4.67 3.06 4.34 0 4 C0 2.68 0 1.36 0 0 Z " fill="#303030" transform="translate(409,247)"/>
<path d="M0 0 C20.46 0 40.92 0 62 0 C62 6.93 62 13.86 62 21 C60.68 20.67 59.36 20.34 58 20 C57.72285156 19.00097656 57.44570313 18.00195312 57.16015625 16.97265625 C56.79444451 15.66922209 56.42854962 14.36583931 56.0625 13.0625 C55.78889648 12.0734668 55.78889648 12.0734668 55.50976562 11.06445312 C54.77403899 7.76178827 54.77403899 7.76178827 53 5 C50.71011219 4.84111908 48.41556559 4.74861927 46.12109375 4.68359375 C44.23668579 4.62643188 44.23668579 4.62643188 42.31420898 4.56811523 C40.70489502 4.52501221 39.09558105 4.48190918 37.4375 4.4375 C32.343125 4.293125 27.24875 4.14875 22 4 C22 16.54 22 29.08 22 42 C29.92 42 37.84 42 46 42 C46.99 37.71 47.98 33.42 49 29 C50.32 29 51.64 29 53 29 C53 39.23 53 49.46 53 60 C51.68 60 50.36 60 49 60 C48.01 56.04 47.02 52.08 46 48 C38.08 47.67 30.16 47.34 22 47 C22 59.87 22 72.74 22 86 C33.22 85.67 44.44 85.34 56 85 C56.99 80.38 57.98 75.76 59 71 C59.495 69.515 59.495 69.515 60 68 C61.32 68 62.64 68 64 68 C64 75.26 64 82.52 64 90 C42.88 90 21.76 90 0 90 C0 88.68 0 87.36 0 86 C0.63808594 85.93941406 1.27617188 85.87882812 1.93359375 85.81640625 C2.75988281 85.73261719 3.58617187 85.64882813 4.4375 85.5625 C5.26121094 85.48128906 6.08492187 85.40007812 6.93359375 85.31640625 C8.98662025 85.21069185 8.98662025 85.21069185 10 84 C10.12495027 81.536507 10.18602203 79.09963233 10.20532227 76.63452148 C10.22017166 75.47850433 10.22017166 75.47850433 10.23532104 74.2991333 C10.26702701 71.73981853 10.2917292 69.18048517 10.31640625 66.62109375 C10.33696794 64.85131841 10.35796419 63.08154806 10.37937927 61.31178284 C10.43468109 56.6445418 10.48405446 51.97725586 10.53222656 47.30993652 C10.58238253 42.55098454 10.63809934 37.79209809 10.69335938 33.03320312 C10.80104008 23.68885802 10.90246288 14.3444561 11 5 C7.37 4.67 3.74 4.34 0 4 C0 2.68 0 1.36 0 0 Z " fill="#2F2E2E" transform="translate(583,247)"/>
<path d="M0 0 C1.25804443 0.00640503 1.25804443 0.00640503 2.54150391 0.01293945 C10.88247966 0.24189155 16.23830857 2.63790498 22.625 7.9375 C27.81917511 14.39086907 28.07347537 19.46599425 27.6875 27.5 C23.8264146 28.93668294 20.791073 29.61185208 16.6875 29.5 C16.57792969 28.40300781 16.46835938 27.30601562 16.35546875 26.17578125 C16.19594334 24.72128484 16.03575187 23.26686137 15.875 21.8125 C15.80474609 21.09126953 15.73449219 20.37003906 15.66210938 19.62695312 C15.16149239 15.2415483 14.40931233 12.12007794 11.6875 8.5 C6.19025043 4.30473059 -0.7186078 4.736585 -7.3125 5.5 C-11.36392577 6.99061891 -14.10795077 9.84032338 -16.3125 13.5 C-17.11626767 19.51015463 -17.15560951 25.41055468 -14.875 31.0625 C-8.43636959 37.18705087 -1.1841822 39.19405828 7.25 41.484375 C16.97100807 44.35649102 23.30368656 48.7849948 28.85546875 57.2890625 C31.06424424 63.15839079 30.81521254 72.76517292 28.4375 78.625 C27.86 79.57375 27.2825 80.5225 26.6875 81.5 C26.171875 82.36625 25.65625 83.2325 25.125 84.125 C17.86217355 91.20160013 8.96372861 92.76786798 -0.76342773 92.74438477 C-9.78378025 92.59807777 -15.91503748 90.76863221 -22.58203125 84.4609375 C-26.20567572 80.35468575 -28.17157198 76.47299231 -28.5625 71 C-28.48 70.175 -28.3975 69.35 -28.3125 68.5 C-24.8475 67.51 -24.8475 67.51 -21.3125 66.5 C-21.01859375 67.78583984 -21.01859375 67.78583984 -20.71875 69.09765625 C-18.64631561 77.02114462 -16.42475279 82.11873545 -9.3125 86.5 C-2.69929405 88.70440198 5.25112362 88.46784455 11.75 85.9375 C15.2486324 84.09171416 17.41931393 82.15886963 19.09765625 78.5546875 C20.61877831 73.25594442 20.62858658 67.74980353 18.3125 62.6875 C13.57669419 55.74597642 4.19379322 53.97691791 -3.375 51.5625 C-12.96890241 48.47597139 -20.33687781 45.37298976 -25.4375 36.234375 C-28.56626402 30.03271775 -28.36921333 21.66956164 -26.6640625 14.94140625 C-23.61845193 8.26449077 -18.02483738 3.85462057 -11.32202148 1.10864258 C-7.58811152 -0.02228168 -3.87627345 -0.0297699 0 0 Z " fill="#313030" transform="translate(214.3125,245.5)"/>
<path d="M0 0 C5.40234119 3.14217804 8.09560097 7.67387364 10.5625 13.3125 C11.78196265 18.41121868 11.74634256 23.34699505 11.75 28.5625 C11.76224609 29.46613281 11.77449219 30.36976563 11.78710938 31.30078125 C11.80554321 39.84179013 11.13395613 47.5029425 5.5625 54.3125 C0.28342827 59.36204687 -4.08201077 61.34477039 -11.3125 61.6875 C-16.42561545 61.5642924 -20.32701823 60.39062575 -24.4375 57.3125 C-27.04775477 54.24545064 -28.33798203 52.45695665 -28.6875 48.4375 C-28.605 47.73625 -28.5225 47.035 -28.4375 46.3125 C-25.4675 45.8175 -25.4675 45.8175 -22.4375 45.3125 C-22.19966797 46.23482422 -22.19966797 46.23482422 -21.95703125 47.17578125 C-20.50445631 52.34379201 -20.50445631 52.34379201 -17.125 56.375 C-13.91030257 57.49640608 -11.81896194 57.80562987 -8.4375 57.3125 C-4.31363056 55.01080543 -2.4962756 52.28304938 -0.99609375 47.81640625 C0.14020226 42.72293953 0.33257714 37.51351367 0.5625 32.3125 C-0.0975 32.3125 -0.7575 32.3125 -1.4375 32.3125 C-1.4375 32.9725 -1.4375 33.6325 -1.4375 34.3125 C-6.70158924 37.63718794 -11.3800246 38.17648223 -17.4375 37.3125 C-22.29484053 35.59814452 -25.59610663 32.57459005 -28.4375 28.3125 C-29.62563473 24.74809582 -29.67937953 21.75775218 -29.75 18 C-29.78738281 16.70449219 -29.82476562 15.40898437 -29.86328125 14.07421875 C-29.25141753 8.66848697 -26.92726081 5.68766383 -23 2.0625 C-16.10714355 -2.6448166 -7.66562882 -3.54571221 0 0 Z " fill="#323131" transform="translate(472.4375,398.6875)"/>
<path d="M0 0 C23.43 0 46.86 0 71 0 C71 7.26 71 14.52 71 22 C69.68 22 68.36 22 67 22 C66.72285156 20.94039063 66.44570313 19.88078125 66.16015625 18.7890625 C65.794386 17.40101131 65.42849428 16.01299213 65.0625 14.625 C64.78889648 13.57699219 64.78889648 13.57699219 64.50976562 12.5078125 C63.51487491 8.66044902 63.51487491 8.66044902 62 5 C55.4 4.67 48.8 4.34 42 4 C42.33 30.73 42.66 57.46 43 85 C45.97 85.33 48.94 85.66 52 86 C52 87.32 52 88.64 52 90 C41.44 90 30.88 90 20 90 C20 88.68 20 87.36 20 86 C24.455 85.505 24.455 85.505 29 85 C29.33 58.27 29.66 31.54 30 4 C23.07 4 16.14 4 9 4 C8.54625 5.670625 8.0925 7.34125 7.625 9.0625 C6.44685746 13.38421719 5.24320584 17.69659517 4 22 C2.68 22 1.36 22 0 22 C0 14.74 0 7.48 0 0 Z " fill="#333232" transform="translate(251,247)"/>
<path d="M0 0 C10.56 0 21.12 0 32 0 C32 1.32 32 2.64 32 4 C29.36 4.33 26.72 4.66 24 5 C25.4465773 9.75946894 27.43309981 14.10173796 29.6953125 18.515625 C30.04761932 19.21266541 30.39992615 19.90970581 30.76290894 20.62786865 C31.8797334 22.83723408 33.00171671 25.04391209 34.125 27.25 C35.61132716 30.16959377 37.09240867 33.09176008 38.5703125 36.015625 C38.91401886 36.68644104 39.25772522 37.35725708 39.61184692 38.04840088 C42 42.77444142 42 42.77444142 42 45 C42.66 45 43.32 45 44 45 C44.33064453 43.84951172 44.33064453 43.84951172 44.66796875 42.67578125 C46.49257745 37.64071735 48.89533485 32.96083942 51.3125 28.1875 C51.78623047 27.24068359 52.25996094 26.29386719 52.74804688 25.31835938 C55.38669836 20.07354321 58.12233363 14.92578121 61.10620117 9.8684082 C62.21576946 7.89415107 62.21576946 7.89415107 62 5 C59.36 4.67 56.72 4.34 54 4 C54 2.68 54 1.36 54 0 C62.25 0 70.5 0 79 0 C79 1.32 79 2.64 79 4 C78.41774658 3.96124756 77.83549316 3.92249512 77.2355957 3.88256836 C74.57639229 3.90473523 72.5231272 4.13708529 70 5 C67.33100178 7.80287623 65.83431832 11.08588355 64.1875 14.5625 C63.1761459 16.60044142 62.16441492 18.63819584 61.15234375 20.67578125 C60.38446533 22.25673584 60.38446533 22.25673584 59.60107422 23.86962891 C58.05676238 26.88901994 56.36452334 29.73163332 54.56640625 32.60546875 C44.23794258 49.78067294 44.65173517 65.59881484 46 85 C48.97 85.33 51.94 85.66 55 86 C55 87.32 55 88.64 55 90 C44.77 90 34.54 90 24 90 C24 88.68 24 87.36 24 86 C26.05078125 85.77213542 28.1015625 85.54427083 30.15234375 85.31640625 C32.01140229 85.18113386 32.01140229 85.18113386 33 84 C38.81971438 54.46198027 25.16358879 30.52260098 10 6 C8.41727399 4.41727399 6.61965997 4.65264253 4.4375 4.4375 C3.61121094 4.35371094 2.78492187 4.26992187 1.93359375 4.18359375 C1.29550781 4.12300781 0.65742187 4.06242188 0 4 C0 2.68 0 1.36 0 0 Z " fill="#2F2E2E" transform="translate(103,247)"/>
<path d="M0 0 C3.50625 -0.061875 7.0125 -0.12375 10.625 -0.1875 C11.71893066 -0.21481201 12.81286133 -0.24212402 13.93994141 -0.27026367 C19.36162623 -0.3165136 23.37806021 -0.18268406 28 3 C33.79078726 10.51237266 33.67952498 17.896227 33 27 C31.83539224 31.45326698 30.2483922 34.78943787 26.9375 38 C23.46667314 39.79139451 20.73675183 40.11986562 16.89453125 40.09765625 C16.00870361 40.09515869 15.12287598 40.09266113 14.21020508 40.09008789 C13.0889624 40.08098389 11.96771973 40.07187988 10.8125 40.0625 C7.244375 40.041875 3.67625 40.02125 0 40 C0 26.8 0 13.6 0 0 Z " fill="#F6F6F6" transform="translate(53,293)"/>
<path d="M0 0 C19 0 19 0 26 4 C30.24710234 8.30032418 30.41822282 14.17785998 30.5 19.9375 C30.43233096 26.24672883 29.67848742 31.73963745 26 37 C18.81875703 43.96362955 10.23084553 41 0 41 C0 27.47 0 13.94 0 0 Z " fill="#FBFBFB" transform="translate(680,251)"/>
<path d="M0 0 C18 0 18 0 24 4 C28.74777882 9.40264487 28.40987553 15.29863652 28.28125 22.1796875 C27.92671252 26.99548822 27.02361572 31.15333702 24 35 C19 38 19 38 0 38 C0 25.46 0 12.92 0 0 Z " fill="#FBFBFB" transform="translate(54,251)"/>
<path d="M0 0 C8.58 0 17.16 0 26 0 C26 0.99 26 1.98 26 3 C24.02 3 22.04 3 20 3 C21.7879038 6.77262877 23.58096482 10.54278357 25.375 14.3125 C25.88289063 15.38435547 26.39078125 16.45621094 26.9140625 17.56054688 C27.40390625 18.58857422 27.89375 19.61660156 28.3984375 20.67578125 C29.07398682 22.0975769 29.07398682 22.0975769 29.76318359 23.5480957 C31.01675692 26.15570177 31.01675692 26.15570177 33 29 C34.9827851 25.23105858 36.96060441 21.45953347 38.9375 17.6875 C39.50146484 16.61564453 40.06542969 15.54378906 40.64648438 14.43945312 C41.18466797 13.41142578 41.72285156 12.38339844 42.27734375 11.32421875 C43.02359009 9.9024231 43.02359009 9.9024231 43.78491211 8.4519043 C45.08980212 5.96043551 45.08980212 5.96043551 46 3 C44.02 3 42.04 3 40 3 C40 2.01 40 1.02 40 0 C45.61 0 51.22 0 57 0 C57 0.99 57 1.98 57 3 C55.97390625 3.08636719 54.9478125 3.17273438 53.890625 3.26171875 C51.01213547 4.08714664 50.10287422 4.85482833 48.34570312 7.33447266 C46.70092175 10.45136448 45.20283474 13.60166033 43.75 16.8125 C42.7252363 18.98628 41.69923712 21.1594781 40.671875 23.33203125 C40.2294043 24.29858643 39.78693359 25.2651416 39.33105469 26.26098633 C38 29 38 29 36.35131836 31.50927734 C34.76908316 34.42562124 34.65178168 36.22297376 34.70703125 39.51953125 C34.71669922 40.54111328 34.72636719 41.56269531 34.73632812 42.61523438 C34.76146484 43.67033203 34.78660156 44.72542969 34.8125 45.8125 C34.82603516 46.88693359 34.83957031 47.96136719 34.85351562 49.06835938 C34.88877423 51.71275455 34.93805634 54.35611748 35 57 C37.97 57.495 37.97 57.495 41 58 C41 58.99 41 59.98 41 61 C33.08 61 25.16 61 17 61 C17 60.01 17 59.02 17 58 C19.97 57.505 19.97 57.505 23 57 C24.86418761 39.74909462 21.68989214 28.71306201 12.37255859 14.17919922 C8 7.23692636 8 7.23692636 8 4 C5.36 3.67 2.72 3.34 0 3 C0 2.01 0 1.02 0 0 Z " fill="#313030" transform="translate(302,398)"/>
<path d="M0 0 C0 19.14 0 38.28 0 58 C1.98 58 3.96 58 6 58 C6 58.99 6 59.98 6 61 C-2.58 61 -11.16 61 -20 61 C-20 60.01 -20 59.02 -20 58 C-17.36 57.67 -14.72 57.34 -12 57 C-11.67 40.17 -11.34 23.34 -11 6 C-13.97 7.65 -16.94 9.3 -20 11 C-20.33 9.68 -20.66 8.36 -21 7 C-19.39600094 5.80462427 -17.76531225 4.64503792 -16.125 3.5 C-15.22007812 2.8503125 -14.31515625 2.200625 -13.3828125 1.53125 C-10 0 -10 0 0 0 Z " fill="#343333" transform="translate(430,398)"/>
<path d="M0 0 C0.33 18.81 0.66 37.62 1 57 C2.98 57.33 4.96 57.66 7 58 C7 58.99 7 59.98 7 61 C-1.58 61 -10.16 61 -19 61 C-19 60.01 -19 59.02 -19 58 C-16.36 58 -13.72 58 -11 58 C-11.33 41.17 -11.66 24.34 -12 7 C-14.475 8.485 -14.475 8.485 -17 10 C-19.3125 9.6875 -19.3125 9.6875 -21 9 C-18.68214182 6.39240955 -16.16092903 4.24560597 -13.3125 2.25 C-12.71050781 1.82203125 -12.10851562 1.3940625 -11.48828125 0.953125 C-9 0 -9 0 0 0 Z " fill="#333333" transform="translate(398,398)"/>
<path d="M0 0 C2 1 2 1 3.0078125 3.71875 C3.37648438 4.9665625 3.74515625 6.214375 4.125 7.5 C4.5570985 8.94185519 4.99080937 10.38322778 5.42578125 11.82421875 C5.66893066 12.63294434 5.91208008 13.44166992 6.16259766 14.27490234 C7.11274257 17.36688996 8.10566494 20.44324623 9.10546875 23.51953125 C9.65146729 25.20175781 9.65146729 25.20175781 10.20849609 26.91796875 C10.9392715 29.16491728 11.67263317 31.41102648 12.40869141 33.65625 C12.74433105 34.69394531 13.0799707 35.73164063 13.42578125 36.80078125 C13.88078003 38.19550659 13.88078003 38.19550659 14.3449707 39.6184082 C15 42 15 42 15 45 C5.43 45 -4.14 45 -14 45 C-12.6400062 38.88002791 -11.18472233 33.13808065 -9.1796875 27.24609375 C-8.91616486 26.45977066 -8.65264221 25.67344757 -8.38113403 24.86329651 C-7.55002403 22.38657143 -6.71263545 19.91202477 -5.875 17.4375 C-5.30557042 15.74428153 -4.73655625 14.0509233 -4.16796875 12.35742188 C-2.78343627 8.23665217 -1.39327428 4.11782181 0 0 Z " fill="#F8F8F8" transform="translate(359,260)"/>
<path d="M0 0 C3.2482457 2.28255103 4.75758959 4.79693772 5.67578125 8.671875 C6.60750559 15.36232933 7.55564811 22.34034355 4.0625 28.3125 C0.06831933 30.51337506 -3.43001316 31.45272767 -8 31 C-11.07049877 28.85065086 -11.81691629 27.54925112 -13 24 C-13.2754023 20.87978687 -13.27724036 17.75605603 -13.3125 14.625 C-13.34150391 13.77421875 -13.37050781 12.9234375 -13.40039062 12.046875 C-13.4429657 7.84176777 -13.37759554 5.60570996 -11.10546875 1.9609375 C-7.28285244 -1.59927286 -5.03237318 -1.12794571 0 0 Z " fill="#F9F9F9" transform="translate(467,401)"/>
<path d="M0 0 C12.53846154 0 12.53846154 0 16 3 C17.62169093 6.24338187 17.30955934 9.75193321 17.375 13.3125 C17.41238281 14.07240234 17.44976562 14.83230469 17.48828125 15.61523438 C17.54937648 19.52193511 17.23039472 21.60467514 15.2265625 25.04296875 C12 27 12 27 0 27 C0 18.09 0 9.18 0 0 Z " fill="#FAFAFA" transform="translate(271,429)"/>
<path d="M0 0 C9 0 9 0 13 2 C15.46099763 5.39366871 15.33133396 8.84599238 15.375 12.9375 C15.40335937 14.14277344 15.43171875 15.34804688 15.4609375 16.58984375 C14.88872211 20.82326781 14.40664389 22.36759336 11 25 C7.37 25 3.74 25 0 25 C0 16.75 0 8.5 0 0 Z " fill="#F9F9F9" transform="translate(271,401)"/>
<path d="M0 0 C0.66 0.33 1.32 0.66 2 1 C2 1.99 2 2.98 2 4 C-0.97 5.65 -3.94 7.3 -7 9 C-7.33 7.68 -7.66 6.36 -8 5 C-6.71475739 4.13619741 -5.42157581 3.28419631 -4.125 2.4375 C-3.04605469 1.72400391 -3.04605469 1.72400391 -1.9453125 0.99609375 C-1.30335938 0.66738281 -0.66140625 0.33867187 0 0 Z " fill="#414040" transform="translate(417,400)"/>
</svg>
