<?xml version="1.0" encoding="UTF-8"?>
<svg version="1.1" xmlns="http://www.w3.org/2000/svg" width="760" height="760">
<circle cx="360" cy="355" r="282" fill="white"/>
<path d="M0 0 C6.21880053 -0.10255522 12.43039223 -0.06424299 18.64892578 0.04150391 C19.71385254 0.05938965 20.7787793 0.07727539 21.87597656 0.09570312 C67.00701519 0.99139374 111.76270919 11.51840445 151.64892578 33.04150391 C152.37418457 33.42951172 153.09944336 33.81751953 153.84667969 34.21728516 C161.97039281 38.58133484 169.97794327 43.11278896 177.77392578 48.04150391 C178.37221191 48.41525146 178.97049805 48.78899902 179.58691406 49.17407227 C180.97889572 50.07367632 182.32046519 51.05049793 183.64892578 52.04150391 C183.64892578 52.70150391 183.64892578 53.36150391 183.64892578 54.04150391 C184.35017578 54.27998047 185.05142578 54.51845703 185.77392578 54.76416016 C189.16394161 56.27032208 191.72514438 58.19479968 194.64892578 60.47900391 C195.21071533 60.91784912 195.77250488 61.35669434 196.35131836 61.80883789 C208.23504126 71.16270187 220.36217207 80.94263806 230.64892578 92.04150391 C230.64892578 92.70150391 230.64892578 93.36150391 230.64892578 94.04150391 C231.30892578 94.04150391 231.96892578 94.04150391 232.64892578 94.04150391 C232.64892578 94.70150391 232.64892578 95.36150391 232.64892578 96.04150391 C233.30892578 96.04150391 233.96892578 96.04150391 234.64892578 96.04150391 C234.64892578 96.70150391 234.64892578 97.36150391 234.64892578 98.04150391 C235.30892578 98.04150391 235.96892578 98.04150391 236.64892578 98.04150391 C241.64892578 103.51769438 241.64892578 103.51769438 241.64892578 106.04150391 C242.30892578 106.04150391 242.96892578 106.04150391 243.64892578 106.04150391 C244.86645508 107.3515625 244.86645508 107.3515625 246.22314453 109.18994141 C246.97156616 110.19516846 246.97156616 110.19516846 247.73510742 111.22070312 C248.26354248 111.94531738 248.79197754 112.66993164 249.33642578 113.41650391 C249.88097412 114.15529785 250.42552246 114.8940918 250.98657227 115.65527344 C252.54749794 117.77913686 254.09883301 119.90972902 255.64892578 122.04150391 C256.61958984 123.35634766 256.61958984 123.35634766 257.60986328 124.69775391 C293.6484604 174.62439576 311.98044964 233.94382153 311.77392578 295.16650391 C311.77110092 296.4407724 311.77110092 296.4407724 311.76821899 297.74078369 C311.66780167 336.48187724 311.66780167 336.48187724 307.64892578 355.04150391 C307.36106201 356.44577637 307.36106201 356.44577637 307.06738281 357.87841797 C299.99559183 392.23957969 287.39612103 425.31528824 268.64892578 455.04150391 C268.12041016 455.90517578 267.59189453 456.76884766 267.04736328 457.65869141 C262.639119 464.76421758 257.74488109 471.41676201 252.64892578 478.04150391 C252.05080078 478.83556641 251.45267578 479.62962891 250.83642578 480.44775391 C246.41138988 486.26585667 241.57899761 491.64975311 236.64892578 497.04150391 C235.06468172 498.81152252 233.48133088 500.58234106 231.89892578 502.35400391 C228.90167371 505.68255846 225.8580455 508.9146693 222.64892578 512.04150391 C221.75947266 512.94642578 221.75947266 512.94642578 220.85205078 513.86962891 C211.38335887 523.48512225 211.38335887 523.48512225 206.64892578 527.04150391 C205.98892578 527.04150391 205.32892578 527.04150391 204.64892578 527.04150391 C204.64892578 527.70150391 204.64892578 528.36150391 204.64892578 529.04150391 C202.99892578 529.70150391 201.34892578 530.36150391 199.64892578 531.04150391 C199.64892578 531.70150391 199.64892578 532.36150391 199.64892578 533.04150391 C198.31054687 534.22729492 198.31054687 534.22729492 196.42236328 535.54541016 C195.72731689 536.03428711 195.03227051 536.52316406 194.31616211 537.02685547 C193.55972412 537.54731445 192.80328613 538.06777344 192.02392578 538.60400391 C191.25137451 539.1412207 190.47882324 539.6784375 189.68286133 540.23193359 C173.74636935 551.2529119 157.42161007 560.97274729 139.7878418 569.02734375 C137.49323681 570.11532333 135.25488685 571.29098011 133.00439453 572.46728516 C126.78542847 575.59223529 120.29377761 577.81074106 113.71142578 580.04150391 C113.07342041 580.25905334 112.43541504 580.47660278 111.77807617 580.70074463 C85.82138069 589.53473922 58.39968323 596.32550376 30.85205078 596.37744141 C29.57956482 596.38409821 28.30707886 596.390755 26.99603271 596.39761353 C24.31687291 596.40767077 21.63811971 596.41330686 18.95898438 596.41210938 C14.95037374 596.4118687 10.94251267 596.45275376 6.93408203 596.49072266 C-17.16694686 596.59571738 -40.10604563 593.31670877 -63.35107422 587.04150391 C-64.18300293 586.81736816 -65.01493164 586.59323242 -65.87207031 586.36230469 C-101.24010646 576.65920552 -134.96468312 559.92401902 -164.35107422 538.04150391 C-164.94355957 537.60596191 -165.53604492 537.17041992 -166.14648438 536.72167969 C-172.97151848 531.69423315 -179.41025295 526.35072874 -185.57104492 520.53149414 C-188.23919165 517.9834487 -188.23919165 517.9834487 -191.35107422 516.04150391 C-191.35107422 515.38150391 -191.35107422 514.72150391 -191.35107422 514.04150391 C-192.01107422 514.04150391 -192.67107422 514.04150391 -193.35107422 514.04150391 C-193.35107422 513.38150391 -193.35107422 512.72150391 -193.35107422 512.04150391 C-194.01107422 512.04150391 -194.67107422 512.04150391 -195.35107422 512.04150391 C-195.35107422 511.38150391 -195.35107422 510.72150391 -195.35107422 510.04150391 C-196.17865234 509.71666016 -196.17865234 509.71666016 -197.02294922 509.38525391 C-200.15663811 507.57654757 -202.18503928 505.22598717 -204.60107422 502.54150391 C-205.05998047 502.04263672 -205.51888672 501.54376953 -205.99169922 501.02978516 C-209.35107422 497.30047898 -209.35107422 497.30047898 -209.35107422 495.04150391 C-210.34107422 494.71150391 -211.33107422 494.38150391 -212.35107422 494.04150391 C-216.35107422 489.58436105 -216.35107422 489.58436105 -216.35107422 487.04150391 C-217.01107422 487.04150391 -217.67107422 487.04150391 -218.35107422 487.04150391 C-219.79634158 485.30602222 -221.15979642 483.50174427 -222.47607422 481.66650391 C-223.56275391 480.16990234 -223.56275391 480.16990234 -224.67138672 478.64306641 C-226.35107422 476.04150391 -226.35107422 476.04150391 -226.35107422 474.04150391 C-227.01107422 474.04150391 -227.67107422 474.04150391 -228.35107422 474.04150391 C-229.76806641 472.18066406 -229.76806641 472.18066406 -231.39794922 469.58056641 C-232.29513672 468.159375 -232.29513672 468.159375 -233.21044922 466.70947266 C-233.83435547 465.70529297 -234.45826172 464.70111328 -235.10107422 463.66650391 C-235.70951172 462.70099609 -236.31794922 461.73548828 -236.94482422 460.74072266 C-238.76105204 457.84950529 -240.5594325 454.94801122 -242.35107422 452.04150391 C-242.89425293 451.1654248 -243.43743164 450.2893457 -243.99707031 449.38671875 C-247.17235046 444.19599132 -249.96439879 438.95666041 -252.47607422 433.41650391 C-253.123524 432.00719555 -253.7719588 430.5983393 -254.42138672 429.18994141 C-254.73793213 428.50174316 -255.05447754 427.81354492 -255.38061523 427.10449219 C-256.34771425 425.04864649 -257.35881829 423.02092087 -258.38623047 420.99462891 C-267.8460989 402.19900111 -273.67704913 382.02169316 -278.16357422 361.54150391 C-278.31068848 360.87335663 -278.45780273 360.20520935 -278.609375 359.51681519 C-281.24730915 347.43663068 -283.45315476 335.28998286 -283.97607422 322.91650391 C-284.0132959 322.09867432 -284.05051758 321.28084473 -284.08886719 320.43823242 C-285.79709196 277.70506111 -281.50811375 237.60988846 -267.35107422 197.04150391 C-266.93083984 195.82462891 -266.51060547 194.60775391 -266.07763672 193.35400391 C-263.12860383 185.27879976 -259.30704072 177.70370342 -255.38183594 170.07226562 C-254.38902497 168.11627282 -253.4288572 166.14803201 -252.47998047 164.17041016 C-244.97692313 148.61011472 -236.2912967 132.48375036 -225.35107422 119.04150391 C-224.69107422 119.04150391 -224.03107422 119.04150391 -223.35107422 119.04150391 C-223.08294922 118.29900391 -222.81482422 117.55650391 -222.53857422 116.79150391 C-221.39830671 114.15088442 -220.25727116 112.18597547 -218.35107422 110.04150391 C-217.69107422 110.04150391 -217.03107422 110.04150391 -216.35107422 110.04150391 C-216.08294922 109.46400391 -215.81482422 108.88650391 -215.53857422 108.29150391 C-214.32178233 105.98600348 -213.04773543 104.02094198 -211.35107422 102.04150391 C-210.69107422 102.04150391 -210.03107422 102.04150391 -209.35107422 102.04150391 C-209.12419922 101.50525391 -208.89732422 100.96900391 -208.66357422 100.41650391 C-206.89537333 97.21690229 -204.81437219 94.75113168 -202.35107422 92.04150391 C-201.69107422 92.04150391 -201.03107422 92.04150391 -200.35107422 92.04150391 C-200.08294922 91.40212891 -199.81482422 90.76275391 -199.53857422 90.10400391 C-198.35107422 88.04150391 -198.35107422 88.04150391 -195.35107422 87.04150391 C-195.35107422 86.38150391 -195.35107422 85.72150391 -195.35107422 85.04150391 C-194.69107422 85.04150391 -194.03107422 85.04150391 -193.35107422 85.04150391 C-193.35107422 84.38150391 -193.35107422 83.72150391 -193.35107422 83.04150391 C-192.69107422 83.04150391 -192.03107422 83.04150391 -191.35107422 83.04150391 C-191.35107422 82.38150391 -191.35107422 81.72150391 -191.35107422 81.04150391 C-190.05810547 79.70166016 -190.05810547 79.70166016 -188.16357422 78.10400391 C-187.43912109 77.48912109 -186.71466797 76.87423828 -185.96826172 76.24072266 C-185.10458984 75.51498047 -184.24091797 74.78923828 -183.35107422 74.04150391 C-182.29037445 73.13228469 -181.23052596 72.22207174 -180.17138672 71.31103516 C-164.69776384 58.04150391 -164.69776384 58.04150391 -161.35107422 58.04150391 C-161.35107422 57.38150391 -161.35107422 56.72150391 -161.35107422 56.04150391 C-159.93334961 54.89990234 -159.93334961 54.89990234 -157.94873047 53.65087891 C-157.22806396 53.19173096 -156.50739746 52.73258301 -155.76489258 52.25952148 C-154.98895752 51.77507568 -154.21302246 51.29062988 -153.41357422 50.79150391 C-151.83241786 49.79087654 -150.25168377 48.78958159 -148.67138672 47.78759766 C-147.91374023 47.30919434 -147.15609375 46.83079102 -146.37548828 46.33789062 C-144.13530226 44.90332867 -141.95962654 43.39076839 -139.78857422 41.85400391 C-100.22098242 15.47560937 -47.19414272 0.83312609 0 0 Z M15.64892578 62.04150391 C13.44817577 67.42801703 13.29815167 72.3785502 13.14892578 78.10400391 C12.42600107 96.88535934 12.42600107 96.88535934 10.64892578 102.04150391 C9.33248873 102.74094349 7.99616328 103.40340255 6.64892578 104.04150391 C5.44280796 104.92581226 4.26348444 105.84753928 3.10986328 106.79931641 C2.45187744 107.3387085 1.7938916 107.87810059 1.1159668 108.43383789 C0.42559326 109.00561768 -0.26478027 109.57739746 -0.97607422 110.16650391 C-2.41735086 111.34765166 -3.85875684 112.52864161 -5.30029297 113.70947266 C-6.6506988 114.81997294 -8.00097201 115.93063451 -9.35107422 117.04150391 C-14.96895735 121.6500976 -20.54991062 125.98472784 -26.73388672 129.81494141 C-27.26755859 130.21970703 -27.80123047 130.62447266 -28.35107422 131.04150391 C-28.35107422 131.70150391 -28.35107422 132.36150391 -28.35107422 133.04150391 C-28.88474609 133.26708984 -29.41841797 133.49267578 -29.96826172 133.72509766 C-33.12946562 135.47153325 -35.75095081 137.76013256 -38.47607422 140.10400391 C-44.11120935 144.92157147 -44.11120935 144.92157147 -46.35107422 146.04150391 C-46.35107422 146.70150391 -46.35107422 147.36150391 -46.35107422 148.04150391 C-48.82607422 149.03150391 -48.82607422 149.03150391 -51.35107422 150.04150391 C-51.35107422 150.70150391 -51.35107422 151.36150391 -51.35107422 152.04150391 C-51.94919922 152.33025391 -52.54732422 152.61900391 -53.16357422 152.91650391 C-55.54435214 154.08892416 -55.54435214 154.08892416 -58.35107422 156.04150391 C-58.35107422 156.70150391 -58.35107422 157.36150391 -58.35107422 158.04150391 C-55.89266225 158.06895516 -53.43456889 158.08855556 -50.97607422 158.10400391 C-50.29673828 158.11238281 -49.61740234 158.12076172 -48.91748047 158.12939453 C-45.24720096 158.14654537 -41.67718745 158.00040382 -38.03076172 157.57666016 C-29.67176821 156.67607907 -21.24993816 156.61370511 -12.85107422 156.41650391 C-11.92545685 156.39437836 -10.99983948 156.37225281 -10.0461731 156.34945679 C15.11893035 155.77387011 40.13603675 156.63011454 65.2409668 158.38061523 C74.39644406 158.99994774 83.47890718 159.14362835 92.64892578 159.04150391 C91.37760072 155.22752873 89.66246378 154.20477162 86.52392578 151.72900391 C83.14664019 149.04122916 79.81394424 146.34487654 76.58642578 143.47900391 C74.02858986 140.82864642 74.02858986 140.82864642 71.64892578 141.04150391 C71.64892578 140.38150391 71.64892578 139.72150391 71.64892578 139.04150391 C69.88647677 137.66679367 68.11298867 136.30520632 66.30517578 134.99072266 C57.47902757 128.51388742 49.01258549 121.61026178 40.78613281 114.39160156 C36.09646124 110.31322184 31.17372942 106.78776513 25.97705078 103.36962891 C19.7505618 97.14313993 21.21631292 86.22597362 21.02392578 78.04150391 C20.98566927 76.68080392 20.94661331 75.32012617 20.90673828 73.95947266 C20.81295511 70.6536157 20.72725189 67.34775717 20.64892578 64.04150391 C18.99892578 63.38150391 17.34892578 62.72150391 15.64892578 62.04150391 Z M-224.22607422 151.60400391 C-225.2991652 153.39807789 -226.33707553 155.21338127 -227.35107422 157.04150391 C-227.96982422 158.13205078 -228.58857422 159.22259766 -229.22607422 160.34619141 C-234.21150425 169.31332314 -238.43266379 178.59281303 -242.47998047 188.01416016 C-243.24174234 189.7870499 -244.01426471 191.5553083 -244.78857422 193.32275391 C-248.1212807 201.07129647 -250.85138995 208.99173942 -253.35107422 217.04150391 C-253.55732422 217.69795898 -253.76357422 218.35441406 -253.97607422 219.03076172 C-260.20115742 239.13583512 -264.06890693 259.98156332 -264.35107422 281.04150391 C-261.16006622 282.6370079 -258.27432121 280.94923582 -255.03857422 279.91650391 C-247.48704774 277.59302008 -239.89234228 275.66386822 -232.18774414 273.91796875 C-227.28245747 272.7917525 -222.4554703 271.5100892 -217.62451172 270.09619141 C-210.3649152 267.99471633 -203.04623473 266.33430059 -195.66357422 264.72900391 C-184.44614004 262.2552728 -173.32056912 259.53896054 -162.21459961 256.59912109 C-154.54046994 254.57868834 -146.84062311 252.73122444 -139.10107422 250.97900391 C-128.01614272 248.46738544 -117.03093911 245.65649911 -106.04443359 242.74853516 C-101.77908874 241.62884347 -97.50416073 240.54884206 -93.22607422 239.47900391 C-92.42419678 239.27799072 -91.62231934 239.07697754 -90.79614258 238.86987305 C-86.43341078 237.78389556 -82.06370399 236.73669212 -77.68310547 235.72509766 C-76.74031738 235.5060376 -75.7975293 235.28697754 -74.82617188 235.0612793 C-73.02381926 234.64439252 -71.22017416 234.2330379 -69.41503906 233.82836914 C-68.59342285 233.63831299 -67.77180664 233.44825684 -66.92529297 233.25244141 C-66.20946045 233.09050293 -65.49362793 232.92856445 -64.75610352 232.76171875 C-61.52644907 231.79456002 -58.44984241 230.36954742 -55.35107422 229.04150391 C-55.35107422 214.85150391 -55.35107422 200.66150391 -55.35107422 186.04150391 C-59.51027842 183.96190181 -62.32068937 182.61010491 -66.62451172 181.54150391 C-67.61580078 181.29400391 -68.60708984 181.04650391 -69.62841797 180.79150391 C-71.16175781 180.42025391 -71.16175781 180.42025391 -72.72607422 180.04150391 C-73.70962891 179.79400391 -74.69318359 179.54650391 -75.70654297 179.29150391 C-81.45128819 177.87559751 -87.20896981 176.67339056 -93.03076172 175.62353516 C-101.0274047 174.17345977 -108.88670806 172.28558809 -116.76824951 170.31219482 C-129.8233825 167.04849697 -142.8958125 163.97476882 -156.06787109 161.21679688 C-164.93553021 159.35882345 -173.76909431 157.37296969 -182.60107422 155.35400391 C-191.95171564 153.21705699 -201.29225887 151.1781373 -210.74560547 149.54931641 C-213.35107422 149.04150391 -213.35107422 149.04150391 -215.35107422 148.04150391 C-219.95078947 146.99611408 -221.67514138 147.88912084 -224.22607422 151.60400391 Z M234.39892578 154.72900391 C233.33206543 155.00083496 232.26520508 155.27266602 231.16601562 155.55273438 C224.11405912 157.36247243 217.10054699 159.29064321 210.09936523 161.28637695 C204.32401306 162.91042925 198.50818995 164.25519752 192.62597656 165.43457031 C187.66635128 166.46837718 182.84400813 167.85960779 177.99658203 169.32275391 C166.52428565 172.76768505 154.87123728 175.46101932 143.22363281 178.23925781 C132.19614043 180.8755841 121.25221705 183.6208465 110.40673828 186.93359375 C105.12302328 188.49138343 99.78860342 189.7772527 94.43017578 191.04931641 C93.05345703 191.54044922 93.05345703 191.54044922 91.64892578 192.04150391 C89.95367073 197.12726907 90.46300174 202.54277036 90.46362305 207.86547852 C90.46143724 209.96797955 90.44327033 212.06995507 90.42431641 214.17236328 C90.42138202 215.51285628 90.41939753 216.85335177 90.41845703 218.19384766 C90.41434814 219.41064209 90.41023926 220.62743652 90.40600586 221.88110352 C90.63811602 224.9008684 90.90704823 226.59135036 92.64892578 229.04150391 C95.64090393 230.24864376 95.64090393 230.24864376 99.33642578 230.97900391 C100.03195557 231.13812256 100.72748535 231.29724121 101.4440918 231.46118164 C102.99300735 231.81200942 104.54385147 232.1543952 106.09619141 232.48974609 C108.81037794 233.0764008 111.51858971 233.68679896 114.22705078 234.29931641 C124.33341828 236.56186002 134.43696234 238.63419854 144.66455078 240.26806641 C147.68583925 240.80200266 150.59232601 241.55941782 153.54345703 242.39697266 C160.51047996 244.34425497 167.578662 245.77205217 174.65994263 247.22930908 C178.87415876 248.0971585 183.08588369 248.97688952 187.29736328 249.85791016 C188.15977127 250.0382782 189.02217926 250.21864624 189.91072083 250.40447998 C199.44856413 252.40713749 208.95717128 254.53713206 218.46591187 256.67288208 C229.76288481 259.20798419 241.08163706 261.5862929 252.43041992 263.88037109 C261.41040998 265.72170399 270.29380987 267.86281455 279.15380859 270.21386719 C280.07000977 270.45347168 280.98621094 270.69307617 281.93017578 270.93994141 C282.72488281 271.15312012 283.51958984 271.36629883 284.33837891 271.5859375 C286.82714658 272.07664338 289.11857235 272.12050741 291.64892578 272.04150391 C290.86030487 232.61045853 275.19758384 194.69544988 256.94238281 160.48901367 C255.81388272 158.35363931 254.71850591 156.20685153 253.64892578 154.04150391 C252.98892578 154.04150391 252.32892578 154.04150391 251.64892578 154.04150391 C251.64892578 153.38150391 251.64892578 152.72150391 251.64892578 152.04150391 C245.61480825 151.60023341 240.1819132 153.22344402 234.39892578 154.72900391 Z M-34.35107422 171.04150391 C-35.68837847 173.7161124 -35.50534289 175.80267618 -35.54052734 178.79785156 C-35.56560364 180.61212143 -35.56560364 180.61212143 -35.59118652 182.46304321 C-35.60476196 183.78057587 -35.6183374 185.09810852 -35.63232422 186.45556641 C-35.65038555 187.82686057 -35.66898958 189.19814769 -35.68811035 190.56942749 C-35.74784404 194.9350589 -35.79972676 199.30076709 -35.85107422 203.66650391 C-35.91080509 208.68235828 -35.97389923 213.69814354 -36.04295349 218.71387863 C-36.06894409 220.7007828 -36.09003882 222.68774914 -36.11096191 224.67471313 C-36.23297502 233.82444619 -36.70787415 242.91669024 -37.35107422 252.04150391 C-38.52410095 252.12476929 -38.52410095 252.12476929 -39.7208252 252.2097168 C-42.86919094 252.43548056 -46.01628617 252.67619815 -49.16357422 252.91650391 C-50.283125 252.99513672 -51.40267578 253.07376953 -52.55615234 253.15478516 C-53.62929688 253.23857422 -54.70244141 253.32236328 -55.80810547 253.40869141 C-57.29274292 253.51866455 -57.29274292 253.51866455 -58.80737305 253.63085938 C-61.58700383 253.8990649 -61.58700383 253.8990649 -64.35107422 256.04150391 C-64.67982495 259.05664502 -64.81911303 261.86164197 -64.81982422 264.88134766 C-64.82743774 265.75924454 -64.83505127 266.63714142 -64.84289551 267.54164124 C-64.85371128 269.40020907 -64.85654363 271.25883776 -64.85205078 273.11743164 C-64.85107903 275.9648968 -64.89266859 278.80966305 -64.93701172 281.65673828 C-64.94221894 283.4607691 -64.94490691 285.26480932 -64.94482422 287.06884766 C-64.96121948 287.92204086 -64.97761475 288.77523407 -64.99450684 289.65428162 C-64.96829513 291.8912554 -64.88927798 293.87028951 -64.35107422 296.04150391 C-61.18761135 298.95268313 -58.47923712 299.41196089 -54.26904297 299.33447266 C-52.87202148 299.3199707 -52.87202148 299.3199707 -51.44677734 299.30517578 C-50.48707031 299.28003906 -49.52736328 299.25490234 -48.53857422 299.22900391 C-47.55953125 299.21546875 -46.58048828 299.20193359 -45.57177734 299.18798828 C-43.16430797 299.15275702 -40.75797858 299.10349656 -38.35107422 299.04150391 C-40.9393464 318.99753648 -43.72927262 338.9115272 -46.85107422 358.79150391 C-46.99992065 359.73976044 -47.14876709 360.68801697 -47.30212402 361.66500854 C-47.89506927 365.43938875 -48.48888979 369.21362978 -49.08389282 372.98768616 C-50.35742197 381.06730755 -51.61545033 389.14917845 -52.84912109 397.23498535 C-53.14826034 399.19135134 -53.45074897 401.14720433 -53.75341797 403.10302734 C-54.71792587 409.43515757 -55.56272673 415.76599137 -56.27294922 422.13134766 C-57.41650594 432.26361473 -59.10849041 442.29932107 -60.78857422 452.35400391 C-65.38156246 479.90711413 -65.38156246 479.90711413 -68.97607422 507.60400391 C-69.09724609 508.66167969 -69.21841797 509.71935547 -69.34326172 510.80908203 C-70.10604653 517.54563263 -70.76651269 524.2872221 -71.35107422 531.04150391 C-67.88607422 529.06150391 -67.88607422 529.06150391 -64.35107422 527.04150391 C-64.35107422 526.38150391 -64.35107422 525.72150391 -64.35107422 525.04150391 C-63.67044922 524.83525391 -62.98982422 524.62900391 -62.28857422 524.41650391 C-59.10347854 522.92560805 -57.03754925 521.13608586 -54.44067383 518.81225586 C-47.50191918 512.93227134 -39.5896789 508.21704178 -31.85107422 503.47900391 C-30.97837891 502.94082031 -30.10568359 502.40263672 -29.20654297 501.84814453 C-26.59227228 500.23891569 -23.97276357 498.63861365 -21.35107422 497.04150391 C-20.51938721 496.53256592 -19.6877002 496.02362793 -18.83081055 495.49926758 C-13.00038667 491.95987748 -7.0785306 488.64696243 -1.03857422 485.47900391 C0.3317395 484.75958618 0.3317395 484.75958618 1.72973633 484.02563477 C7.72086865 480.92604303 13.66631496 478.28233217 20.02001953 476.01025391 C22.3018308 475.16940815 24.37653405 474.23469 26.52392578 473.10400391 C45.22985584 463.46295987 66.41827172 457.37052858 87.05517578 453.73291016 C90.44908874 453.42826808 90.44908874 453.42826808 91.64892578 452.04150391 C92.24930018 442.0648313 91.22278815 432.23929995 89.96142578 422.35400391 C89.87411194 421.65082031 89.7867981 420.94763672 89.69683838 420.22314453 C88.41532556 409.94555649 86.8715934 399.73303127 85.02392578 389.54150391 C84.81807861 388.39077393 84.61223145 387.24004395 84.40014648 386.05444336 C84.20122803 385.00861084 84.00230957 383.96277832 83.79736328 382.88525391 C83.62382324 381.969375 83.4502832 381.05349609 83.27148438 380.10986328 C82.96331787 379.08602539 82.96331787 379.08602539 82.64892578 378.04150391 C73.20852571 373.32130387 50.08278402 384.13669615 40.64892578 387.04150391 C39.54581055 387.37907715 38.44269531 387.71665039 37.30615234 388.06445312 C33.97933961 389.08738293 30.6571076 390.12385713 27.33642578 391.16650391 C26.32974854 391.47869873 25.32307129 391.79089355 24.28588867 392.11254883 C17.48658124 394.28066506 11.08622689 396.96884937 4.64892578 400.04150391 C2.88355469 400.86328125 2.88355469 400.86328125 1.08251953 401.70166016 C0.09380859 402.16443359 -0.89490234 402.62720703 -1.91357422 403.10400391 C-5.62723256 404.83007046 -9.32297637 406.43633356 -13.16357422 407.85400391 C-19.91238145 410.48340932 -26.06244375 414.29137246 -32.32617188 417.89111328 C-35.47399297 419.67945823 -38.65899942 421.39624166 -41.85107422 423.10400391 C-43.44435547 423.95671875 -43.44435547 423.95671875 -45.06982422 424.82666016 C-45.82263672 425.22755859 -46.57544922 425.62845703 -47.35107422 426.04150391 C-43.60107422 421.16650391 -43.60107422 421.16650391 -41.35107422 420.04150391 C-41.35107422 419.38150391 -41.35107422 418.72150391 -41.35107422 418.04150391 C-40.69107422 418.04150391 -40.03107422 418.04150391 -39.35107422 418.04150391 C-39.35107422 417.38150391 -39.35107422 416.72150391 -39.35107422 416.04150391 C-36.87607422 415.05150391 -36.87607422 415.05150391 -34.35107422 414.04150391 C-34.35107422 413.38150391 -34.35107422 412.72150391 -34.35107422 412.04150391 C-33.82900391 411.80947266 -33.30693359 411.57744141 -32.76904297 411.33837891 C-29.53080066 409.60155105 -26.62667254 407.45115822 -23.66357422 405.29150391 C-22.40644366 404.38560889 -21.14863171 403.4806587 -19.89013672 402.57666016 C-19.28202148 402.1398291 -18.67390625 401.70299805 -18.04736328 401.25292969 C-12.44232953 397.25002562 -6.74415157 393.57639406 -0.68310547 390.30322266 C0.85191343 389.47271829 2.37594936 388.62153043 3.88720703 387.74853516 C24.62392175 375.9415062 47.27661934 367.4403603 70.21533203 361.04931641 C73.13467982 360.19244299 75.8994426 359.34200433 78.64892578 358.04150391 C82.33189603 350.67556341 79.10796565 339.09905496 78.04980469 331.13183594 C77.77087222 329.01836708 77.50817966 326.90327459 77.24658203 324.78759766 C77.07176098 323.43460866 76.89601426 322.08173887 76.71923828 320.72900391 C76.56213379 319.51599609 76.4050293 318.30298828 76.24316406 317.05322266 C75.81640226 313.87764744 75.81640226 313.87764744 73.64892578 311.04150391 C71.17531161 309.9500688 71.17531161 309.9500688 68.22314453 309.13916016 C67.11519531 308.8059375 66.00724609 308.47271484 64.86572266 308.12939453 C63.1187207 307.62182617 63.1187207 307.62182617 61.33642578 307.10400391 C59.0694987 306.42822266 56.80257161 305.75244141 54.53564453 305.07666016 C53.41077637 304.74553223 52.2859082 304.4144043 51.12695312 304.07324219 C45.62078804 302.43986765 40.13478532 300.74162716 34.64892578 299.04150391 C38.68413554 298.29004161 42.52015827 297.90651657 46.62255859 297.86791992 C47.77685364 297.85443008 48.93114868 297.84094025 50.12042236 297.82704163 C51.96757843 297.81138405 51.96757843 297.81138405 53.85205078 297.79541016 C56.46663782 297.76249998 59.08122107 297.7292879 61.69580078 297.69580078 C65.81294523 297.64719352 69.93011263 297.6032533 74.04736328 297.56469727 C78.02407373 297.52690284 82.00051608 297.47360905 85.97705078 297.42041016 C87.21658508 297.411996 88.45611938 297.40358185 89.73321533 297.39491272 C91.44574493 297.36994972 91.44574493 297.36994972 93.19287109 297.34448242 C94.70460907 297.32902122 94.70460907 297.32902122 96.24688721 297.31324768 C98.8324536 297.27340044 98.8324536 297.27340044 100.64892578 295.04150391 C102.92313089 284.22830228 103.98391187 266.42692512 99.64892578 256.04150391 C96.65744528 254.04718357 95.96038785 253.78196738 92.59423828 253.66259766 C91.81435547 253.6284375 91.03447266 253.59427734 90.23095703 253.55908203 C89.42013672 253.53265625 88.60931641 253.50623047 87.77392578 253.47900391 C78.01482333 253.11088367 78.01482333 253.11088367 73.64892578 252.04150391 C72.85944142 247.13805601 72.50318762 242.43338583 72.44360352 237.45385742 C72.42855443 236.3523392 72.42855443 236.3523392 72.41320133 235.22856808 C72.38207844 232.87587974 72.35715461 230.52317439 72.33251953 228.17041016 C72.31409184 226.70812463 72.29525391 225.24584422 72.27600098 223.78356934 C72.20784784 218.39044127 72.14760702 212.99721556 72.08642578 207.60400391 C71.86986328 189.50556641 71.86986328 189.50556641 71.64892578 171.04150391 C36.66892578 171.04150391 1.68892578 171.04150391 -34.35107422 171.04150391 Z M87.71142578 474.10400391 C86.46103516 474.40177734 85.21064453 474.69955078 83.92236328 475.00634766 C82.89320801 475.25940674 82.89320801 475.25940674 81.84326172 475.51757812 C79.54851554 476.06547813 77.24648855 476.55889255 74.93798828 477.04541016 C62.67723362 479.70015705 51.09369564 483.5482929 39.35595703 487.95556641 C35.70691865 489.32192207 32.06333215 490.54764105 28.32080078 491.63134766 C24.39269999 492.77696243 20.78062348 494.19763005 17.08642578 495.97900391 C16.18089966 496.41200806 16.18089966 496.41200806 15.25708008 496.85375977 C13.86697621 497.51963626 12.47848924 498.18889481 11.09130859 498.86083984 C8.24787789 500.23537312 5.39781794 501.59566017 2.54736328 502.95556641 C-17.96947425 512.58562054 -17.96947425 512.58562054 -37.78857422 523.54150391 C-38.62984863 524.0492334 -39.47112305 524.55696289 -40.33789062 525.08007812 C-50.21075439 531.09575579 -59.81497937 537.5083387 -69.35107422 544.04150391 C-70.10372559 544.55616211 -70.85637695 545.07082031 -71.63183594 545.60107422 C-73.64968762 546.98780377 -75.65886811 548.3858573 -77.66357422 549.79150391 C-78.54408447 550.40082764 -78.54408447 550.40082764 -79.44238281 551.02246094 C-80.78336446 551.97747129 -82.07395524 553.00263738 -83.35107422 554.04150391 C-83.35107422 554.70150391 -83.35107422 555.36150391 -83.35107422 556.04150391 C-84.01107422 556.04150391 -84.67107422 556.04150391 -85.35107422 556.04150391 C-85.35107422 557.03150391 -85.35107422 558.02150391 -85.35107422 559.04150391 C-56.3668717 571.95389745 -14.08012932 583.92592797 16.57568359 572.31152344 C22.17344574 570.1535655 27.72072375 567.88324637 33.21923828 565.48291016 C36.33487251 564.17349212 39.44101773 563.09700914 42.64892578 562.04150391 C45.13612451 561.07828455 47.61369067 560.10265685 50.08642578 559.10400391 C51.03098633 558.72598633 51.03098633 558.72598633 51.99462891 558.34033203 C55.08529563 557.09834777 58.14996956 555.82291668 61.20361328 554.49072266 C64.54786856 553.0840121 67.8857766 551.90893192 71.33642578 550.79150391 C78.57887653 548.42501981 85.76656132 545.91410287 92.9465332 543.36474609 C93.75968994 543.07760742 94.57284668 542.79046875 95.41064453 542.49462891 C96.1321167 542.23842773 96.85358887 541.98222656 97.59692383 541.71826172 C99.64892578 541.04150391 99.64892578 541.04150391 101.85131836 540.57568359 C102.44452881 540.3994043 103.03773926 540.223125 103.64892578 540.04150391 C105.25284126 536.83367294 104.59507876 533.41786991 104.39892578 529.91650391 C104.3300415 528.66244751 104.3300415 528.66244751 104.25976562 527.38305664 C103.64877027 517.54314765 102.39395729 507.79233225 101.05175781 498.02929688 C100.65255958 495.06845569 100.28700177 492.10490513 99.92626953 489.13916016 C99.68917264 487.3147871 99.45094666 485.49056031 99.21142578 483.66650391 C99.06471436 482.40012085 99.06471436 482.40012085 98.91503906 481.1081543 C98.39605566 476.81188038 98.39605566 476.81188038 95.92236328 473.43603516 C92.88054347 472.90815921 90.71903194 473.37853284 87.71142578 474.10400391 Z " fill="#A82031" transform="translate(344.35107421875,50.95849609375)"/>
<path d="M0 0 C2.08738686 0.04191344 4.17153938 0.04105209 6.25927734 0.03417969 C13.22677598 0.06620341 19.3495212 0.23346194 25.59130859 3.54199219 C31.31949699 10.64422541 30.80884062 18.49789025 30.83154297 27.1105957 C30.8412288 29.33615781 30.87225391 31.5607881 30.90380859 33.78613281 C30.91034131 35.21125757 30.91559073 36.63638889 30.91943359 38.06152344 C30.93345215 39.99668823 30.93345215 39.99668823 30.94775391 41.97094727 C30.36940623 47.76511951 28.01658139 51.80816827 23.59130859 55.54199219 C19.88145933 56.77860861 16.42832568 56.70429829 12.56396484 56.70996094 C11.77863876 56.71328934 10.99331268 56.71661774 10.18418884 56.720047 C8.52408432 56.72510681 6.86396965 56.72745561 5.20385742 56.72729492 C2.66682147 56.72948097 0.13022073 56.74764515 -2.40673828 56.76660156 C-4.02066909 56.76953578 -5.63460196 56.77152039 -7.24853516 56.77246094 C-8.00593491 56.77964645 -8.76333466 56.78683197 -9.54368591 56.79423523 C-13.30509235 56.77795347 -16.25729968 56.72361161 -19.40869141 54.54199219 C-20.63916016 52.95605469 -20.63916016 52.95605469 -21.59619141 51.16699219 C-21.91974609 50.58175781 -22.24330078 49.99652344 -22.57666016 49.39355469 C-25.40235451 43.10538979 -24.63211536 36.10148612 -24.65869141 29.35449219 C-24.67931641 28.06478516 -24.69994141 26.77507812 -24.72119141 25.44628906 C-24.78681442 9.39325939 -24.78681442 9.39325939 -19.97412109 3.90649414 C-14.15841523 -0.64309404 -7.03922459 -0.14896078 0 0 Z M-1.40869141 14.54199219 C-1.63944223 15.88946303 -1.82022203 17.24576784 -1.97119141 18.60449219 C-2.11556641 19.90386719 -2.25994141 21.20324219 -2.40869141 22.54199219 C-3.04677734 22.67476563 -3.68486328 22.80753906 -4.34228516 22.94433594 C-5.58171875 23.20923828 -5.58171875 23.20923828 -6.84619141 23.47949219 C-7.66990234 23.65351563 -8.49361328 23.82753906 -9.34228516 24.00683594 C-11.38530345 24.34952212 -11.38530345 24.34952212 -12.40869141 25.54199219 C-12.5065971 27.03937343 -12.53844005 28.54142111 -12.53369141 30.04199219 C-12.53626953 30.85667969 -12.53884766 31.67136719 -12.54150391 32.51074219 C-12.63320921 34.53729596 -12.63320921 34.53729596 -11.40869141 35.54199219 C-10.08087262 35.74803303 -8.74573246 35.90828808 -7.40869141 36.04199219 C-3.51980252 36.43088108 -3.51980252 36.43088108 -2.40869141 37.54199219 C-2.0410841 39.87017182 -1.7062756 42.20383069 -1.40869141 44.54199219 C3.15691892 45.70356227 3.15691892 45.70356227 7.46630859 44.47949219 C8.96663546 41.89559591 9.26395332 39.48818967 9.59130859 36.54199219 C11.64208984 36.3141276 13.69287109 36.08626302 15.74365234 35.85839844 C17.60271088 35.72312605 17.60271088 35.72312605 18.59130859 34.54199219 C18.66336371 32.85590253 18.67516927 31.16698559 18.65380859 29.47949219 C18.64478516 28.56039063 18.63576172 27.64128906 18.62646484 26.69433594 C18.61486328 25.9840625 18.60326172 25.27378906 18.59130859 24.54199219 C15.62130859 24.21199219 12.65130859 23.88199219 9.59130859 23.54199219 C8.93130859 20.24199219 8.27130859 16.94199219 7.59130859 13.54199219 C2.79160117 13.01365503 2.79160117 13.01365503 -1.40869141 14.54199219 Z " fill="#AC2839" transform="translate(359.40869140625,240.4580078125)"/>
<path d="M0 0 C0.66 0.33 1.32 0.66 2 1 C-7.24 10.24 -16.48 19.48 -26 29 C-26 25.45595664 -25.39010515 24.89732095 -23.125 22.3125 C-22.59132812 21.68988281 -22.05765625 21.06726563 -21.5078125 20.42578125 C-20 19 -20 19 -18 19 C-17.731875 18.360625 -17.46375 17.72125 -17.1875 17.0625 C-16 15 -16 15 -13 14 C-13 13.34 -13 12.68 -13 12 C-12.34 12 -11.68 12 -11 12 C-11 11.34 -11 10.68 -11 10 C-10.34 10 -9.68 10 -9 10 C-9 9.34 -9 8.68 -9 8 C-7.28515625 6.30859375 -7.28515625 6.30859375 -5.0625 4.4375 C-4.33160156 3.81746094 -3.60070312 3.19742188 -2.84765625 2.55859375 C-2.23792969 2.04425781 -1.62820312 1.52992187 -1 1 C-0.67 0.67 -0.34 0.34 0 0 Z M-29 29 C-27 30 -27 30 -27 30 Z " fill="#BC5160" transform="translate(162,124)"/>
<path d="M0 0 C0.99 0.495 0.99 0.495 2 1 C1.01 1.495 1.01 1.495 0 2 C0 1.34 0 0.68 0 0 Z M-2 2 C-1.34 2.33 -0.68 2.66 0 3 C0 3.99 0 4.98 0 6 C-1.98 6.66 -3.96 7.32 -6 8 C-4.84826645 5.53199953 -3.95216435 3.95216435 -2 2 Z " fill="#BE5561" transform="translate(303,469)"/>
</svg>
